<svg width="140" height="53" viewBox="0 0 140 53" fill="none" xmlns="http://www.w3.org/2000/svg">
<path d="M43.8125 9.34375C43.8125 10.3646 43.6458 11.5312 43.3125 12.8438C43 14.1354 42.5833 15.5312 42.0625 17.0312C41.5625 18.5104 40.9792 20.0729 40.3125 21.7188C39.6458 23.3438 38.9583 25.0104 38.25 26.7188C37.5625 28.4062 36.8854 30.1042 36.2188 31.8125C35.5521 33.5 34.9583 35.1667 34.4375 36.8125C33.9375 38.4375 33.5208 40.0104 33.1875 41.5312C32.875 43.0521 32.7188 44.4688 32.7188 45.7812C32.7188 47.2604 33.0938 48.4479 33.8438 49.3438C34.5938 50.2396 35.8021 50.6875 37.4688 50.6875C38.8438 50.6875 40.1667 50.3646 41.4375 49.7188C42.7083 49.0729 43.9688 48.1146 45.2188 46.8438C46.4896 45.5521 47.7708 43.9479 49.0625 42.0312C50.375 40.1146 51.75 37.8854 53.1875 35.3438L54.8125 32.4688L55.6562 33.0625L54.0312 35.9375C52.4688 38.7083 50.9896 41.1146 49.5938 43.1562C48.1979 45.1979 46.8125 46.8958 45.4375 48.25C44.0833 49.5833 42.6875 50.5729 41.25 51.2188C39.8333 51.8854 38.3125 52.2188 36.6875 52.2188C35.125 52.2188 33.8021 52.0417 32.7188 51.6875C31.6354 51.3333 30.75 50.8333 30.0625 50.1875C29.375 49.5208 28.875 48.7292 28.5625 47.8125C28.2708 46.875 28.125 45.8333 28.125 44.6875C28.125 43.6875 28.2812 42.4896 28.5938 41.0938C28.9271 39.6979 29.3646 38.1875 29.9062 36.5625C30.4479 34.9167 31.0521 33.1875 31.7188 31.375C32.4062 29.5625 33.1042 27.7396 33.8125 25.9062C34.5417 24.0521 35.2396 22.2292 35.9062 20.4375C36.5938 18.625 37.2083 16.9167 37.75 15.3125C38.2917 13.7083 38.7188 12.2396 39.0312 10.9062C39.3646 9.57292 39.5312 8.4375 39.5312 7.5C39.5312 5.72917 39.0729 4.35417 38.1562 3.375C37.2604 2.39583 36.0938 1.90625 34.6562 1.90625C33.4062 1.90625 32.1458 2.26042 30.875 2.96875C29.625 3.67708 28.3542 4.70833 27.0625 6.0625C25.7917 7.39583 24.4896 9.04167 23.1562 11C21.8438 12.9375 20.4896 15.1354 19.0938 17.5938L17.5312 20.3438L6.375 51.0312H1.75L14.0625 17.0938C14.25 16.6354 14.4688 15.9896 14.7188 15.1562C14.9896 14.3229 15.2396 13.4167 15.4688 12.4375C15.7188 11.4375 15.9271 10.4062 16.0938 9.34375C16.2812 8.26042 16.375 7.25 16.375 6.3125C16.375 5.6875 16.3229 5.10417 16.2188 4.5625C16.1354 4.02083 15.9792 3.5625 15.75 3.1875C15.5208 2.79167 15.2188 2.47917 14.8438 2.25C14.4896 2.02083 14.0417 1.90625 13.5 1.90625C12.5833 1.90625 11.6146 2.20833 10.5938 2.8125C9.59375 3.39583 8.5625 4.30208 7.5 5.53125C6.4375 6.76042 5.35417 8.32292 4.25 10.2188C3.16667 12.0938 2.09375 14.3125 1.03125 16.875L0.1875 16.3125C1.33333 13.4792 2.48958 11.0729 3.65625 9.09375C4.84375 7.11458 6.03125 5.51042 7.21875 4.28125C8.42708 3.03125 9.625 2.125 10.8125 1.5625C12.0208 1 13.2188 0.71875 14.4062 0.71875C15.5521 0.71875 16.5 0.9375 17.25 1.375C18.0208 1.8125 18.625 2.41667 19.0625 3.1875C19.5 3.9375 19.8021 4.82292 19.9688 5.84375C20.1562 6.84375 20.25 7.91667 20.25 9.0625C20.25 9.85417 20.1771 10.7708 20.0312 11.8125C19.8854 12.8542 19.6562 13.9479 19.3438 15.0938C20.7188 12.7604 22.0521 10.6979 23.3438 8.90625C24.6354 7.11458 25.9271 5.61458 27.2188 4.40625C28.5104 3.17708 29.8229 2.26042 31.1562 1.65625C32.4896 1.03125 33.8854 0.71875 35.3438 0.71875C36.4896 0.71875 37.5729 0.90625 38.5938 1.28125C39.6354 1.65625 40.5417 2.20833 41.3125 2.9375C42.0833 3.64583 42.6875 4.54167 43.125 5.625C43.5833 6.70833 43.8125 7.94792 43.8125 9.34375ZM86.4375 12.9062C87.1667 11.5938 88.0312 10.3438 89.0312 9.15625C90.0312 7.96875 91.125 6.875 92.3125 5.875C90.4792 5.70833 88.6562 5.46875 86.8438 5.15625C85.0521 4.82292 83.2708 4.5 81.5 4.1875C79.75 3.875 78.0208 3.60417 76.3125 3.375C74.6042 3.14583 72.9271 3.03125 71.2812 3.03125C69.4271 3.03125 67.8646 3.19792 66.5938 3.53125C65.3229 3.86458 64.2812 4.33333 63.4688 4.9375C62.6771 5.52083 62.1042 6.22917 61.75 7.0625C61.3958 7.89583 61.2188 8.82292 61.2188 9.84375C61.2188 10.8646 61.375 11.75 61.6875 12.5C62 13.25 62.4479 13.875 63.0312 14.375C63.6146 14.8542 64.3021 15.2188 65.0938 15.4688C65.9062 15.6979 66.8021 15.8125 67.7812 15.8125C68.4479 15.8125 69.1458 15.7604 69.875 15.6562C70.6042 15.5521 71.3229 15.4062 72.0312 15.2188C72.7604 15.0104 73.4688 14.7708 74.1562 14.5C74.8438 14.2292 75.4792 13.9271 76.0625 13.5938L76.6875 14.3438C75.3125 15.1354 73.8333 15.75 72.25 16.1875C70.6667 16.625 69.1562 16.8438 67.7188 16.8438C66.5104 16.8438 65.4271 16.6875 64.4688 16.375C63.5104 16.0417 62.6875 15.5729 62 14.9688C61.3333 14.3646 60.8229 13.625 60.4688 12.75C60.1146 11.875 59.9375 10.8854 59.9375 9.78125C59.9375 6.84375 61.1667 4.59375 63.625 3.03125C66.1042 1.46875 69.6771 0.6875 74.3438 0.6875C76.2188 0.6875 78.0521 0.802083 79.8438 1.03125C81.6562 1.26042 83.4583 1.52083 85.25 1.8125C87.0625 2.08333 88.8854 2.34375 90.7188 2.59375C92.5521 2.84375 94.4375 3 96.375 3.0625C98.0625 2.10417 99.7917 1.35417 101.562 0.8125C103.333 0.270833 105.094 0 106.844 0C107.74 0 108.344 0.0833333 108.656 0.25C108.99 0.416667 109.156 0.729167 109.156 1.1875C109.156 1.875 108.833 2.52083 108.188 3.125C107.542 3.70833 106.646 4.21875 105.5 4.65625C104.375 5.09375 103.031 5.4375 101.469 5.6875C99.9062 5.9375 98.2188 6.0625 96.4062 6.0625C96.1146 6.0625 95.8229 6.0625 95.5312 6.0625C95.2396 6.0625 94.9479 6.05208 94.6562 6.03125C94.3646 6.32292 94.0938 6.61458 93.8438 6.90625C93.6146 7.19792 93.3958 7.5 93.1875 7.8125C93 8.08333 92.8125 8.40625 92.625 8.78125C92.4375 9.13542 92.2188 9.60417 91.9688 10.1875C91.7188 10.75 91.4271 11.4583 91.0938 12.3125C90.7604 13.1667 90.3542 14.2396 89.875 15.5312C89.4167 16.8021 88.8646 18.3229 88.2188 20.0938C87.5729 21.8438 86.8229 23.9062 85.9688 26.2812C84.3021 30.8438 82.6042 34.7708 80.875 38.0625C79.1667 41.3333 77.3438 44.0208 75.4062 46.125C73.4688 48.2083 71.3854 49.75 69.1562 50.75C66.9271 51.7292 64.4688 52.2188 61.7812 52.2188C58.2396 52.2188 55.5104 51.4375 53.5938 49.875C51.6979 48.3125 50.75 46.0729 50.75 43.1562C50.75 42.0938 50.875 41.0938 51.125 40.1562C51.375 39.2188 51.7083 38.3958 52.125 37.6875C52.5417 36.9792 53.0208 36.4167 53.5625 36C54.125 35.5833 54.7188 35.375 55.3438 35.375C55.8854 35.375 56.3021 35.5417 56.5938 35.875C56.9062 36.1875 57.0625 36.6458 57.0625 37.25C57.0625 37.5417 57.0104 37.7917 56.9062 38C56.8229 38.2083 56.6667 38.3958 56.4375 38.5625C56.2083 38.7292 55.8958 38.9062 55.5 39.0938C55.1042 39.2812 54.6042 39.5 54 39.75C53.3958 40.0208 52.9479 40.4062 52.6562 40.9062C52.3646 41.3854 52.2188 42.1562 52.2188 43.2188C52.2188 45.7812 52.9896 47.7188 54.5312 49.0312C56.0729 50.3229 58.4062 50.9688 61.5312 50.9688C62.8021 50.9688 63.9688 50.8646 65.0312 50.6562C66.0938 50.4479 67.0833 50.0729 68 49.5312C68.9375 48.9688 69.8229 48.2083 70.6562 47.25C71.5104 46.2917 72.3646 45.0729 73.2188 43.5938C74.0938 42.1146 74.9896 40.3438 75.9062 38.2812C76.8438 36.2188 77.8646 33.7917 78.9688 31C79.8854 28.6458 80.6771 26.6146 81.3438 24.9062C82.0312 23.1979 82.6146 21.7396 83.0938 20.5312C83.5938 19.3021 84.0104 18.2812 84.3438 17.4688C84.6771 16.6562 84.9583 15.9688 85.1875 15.4062C85.4375 14.8438 85.6562 14.375 85.8438 14C86.0312 13.625 86.2292 13.2604 86.4375 12.9062ZM106.688 0.875C105.375 0.875 104.042 1.07292 102.688 1.46875C101.333 1.86458 100.031 2.39583 98.7812 3.0625C99.9688 3.02083 101.115 2.94792 102.219 2.84375C103.344 2.71875 104.344 2.57292 105.219 2.40625C106.094 2.23958 106.792 2.0625 107.312 1.875C107.833 1.66667 108.094 1.45833 108.094 1.25C108.094 1 107.625 0.875 106.688 0.875ZM135.219 15.6875C136.01 14.5 136.594 13.3854 136.969 12.3438C137.344 11.3021 137.531 10.2396 137.531 9.15625C137.531 8.03125 137.344 7.02083 136.969 6.125C136.615 5.22917 136.094 4.45833 135.406 3.8125C134.719 3.16667 133.875 2.67708 132.875 2.34375C131.896 1.98958 130.792 1.8125 129.562 1.8125C128.104 1.8125 126.771 2.05208 125.562 2.53125C124.375 3.01042 123.354 3.6875 122.5 4.5625C121.667 5.4375 121.021 6.48958 120.562 7.71875C120.104 8.94792 119.875 10.3125 119.875 11.8125C119.875 13.3125 120.083 14.7812 120.5 16.2188C120.917 17.6354 121.438 19.0521 122.062 20.4688C122.688 21.8646 123.365 23.25 124.094 24.625C124.844 26 125.531 27.375 126.156 28.75C126.781 30.125 127.302 31.5104 127.719 32.9062C128.135 34.3021 128.344 35.7188 128.344 37.1562C128.344 38.6146 128.115 40.0104 127.656 41.3438C127.198 42.6562 126.552 43.8646 125.719 44.9688C124.906 46.0729 123.938 47.0729 122.812 47.9688C121.688 48.8646 120.458 49.625 119.125 50.25C117.812 50.875 116.417 51.3542 114.938 51.6875C113.458 52.0208 111.958 52.1875 110.438 52.1875C108.125 52.1875 106.094 51.8229 104.344 51.0938C102.594 50.3646 101.125 49.3958 99.9375 48.1875C98.75 46.9792 97.8542 45.5938 97.25 44.0312C96.6667 42.4479 96.375 40.8125 96.375 39.125C96.375 38.0625 96.4896 37.0417 96.7188 36.0625C96.9479 35.0833 97.2604 34.2188 97.6562 33.4688C98.0729 32.7188 98.5521 32.125 99.0938 31.6875C99.6562 31.25 100.26 31.0312 100.906 31.0312C101.469 31.0312 101.906 31.1875 102.219 31.5C102.552 31.8125 102.719 32.2396 102.719 32.7812C102.719 33.2188 102.604 33.5833 102.375 33.875C102.167 34.1458 101.906 34.375 101.594 34.5625C101.281 34.75 100.948 34.9062 100.594 35.0312C100.24 35.1562 99.9271 35.2812 99.6562 35.4062C99.1146 35.6562 98.6562 36.0833 98.2812 36.6875C97.9271 37.2917 97.75 38.2292 97.75 39.5C97.75 40.7917 97.9896 42.1042 98.4688 43.4375C98.9479 44.7708 99.6771 45.9792 100.656 47.0625C101.656 48.1458 102.917 49.0312 104.438 49.7188C105.958 50.3854 107.76 50.7188 109.844 50.7188C111.656 50.7188 113.365 50.4479 114.969 49.9062C116.594 49.3438 118.01 48.5312 119.219 47.4688C120.448 46.3854 121.417 45.0417 122.125 43.4375C122.833 41.8125 123.188 39.9375 123.188 37.8125C123.188 36.2083 122.99 34.7292 122.594 33.375C122.219 32.0208 121.74 30.7292 121.156 29.5C120.594 28.2708 119.969 27.0833 119.281 25.9375C118.615 24.7708 117.99 23.5833 117.406 22.375C116.844 21.1667 116.365 19.9167 115.969 18.625C115.594 17.3125 115.406 15.8854 115.406 14.3438C115.406 12.3854 115.74 10.5833 116.406 8.9375C117.094 7.27083 118.062 5.83333 119.312 4.625C120.562 3.41667 122.062 2.47917 123.812 1.8125C125.583 1.125 127.552 0.78125 129.719 0.78125C131.281 0.78125 132.688 0.96875 133.938 1.34375C135.208 1.69792 136.281 2.21875 137.156 2.90625C138.052 3.59375 138.729 4.42708 139.188 5.40625C139.667 6.38542 139.906 7.48958 139.906 8.71875C139.906 10.0729 139.615 11.3542 139.031 12.5625C138.448 13.75 137.531 14.9583 136.281 16.1875L135.219 15.6875Z" fill="white"/>
</svg>
