<svg width="36" height="34" viewBox="0 0 36 34" fill="none" xmlns="http://www.w3.org/2000/svg">
<rect width="34" height="34" transform="translate(1)" fill="white"/>
<path d="M23.6667 22.6667L18 17M18 17L12.3333 22.6667M18 17V29.75M29.8858 26.0525C31.2676 25.2992 32.3591 24.1072 32.9882 22.6647C33.6172 21.2222 33.748 19.6112 33.3598 18.0861C32.9716 16.561 32.0866 15.2086 30.8445 14.2424C29.6023 13.2761 28.0737 12.751 26.5 12.75H24.715C24.2862 11.0914 23.487 9.55164 22.3774 8.2464C21.2679 6.94117 19.8769 5.90445 18.309 5.21419C16.7411 4.52393 15.0371 4.19809 13.3252 4.26116C11.6132 4.32424 9.93785 4.77459 8.425 5.57836C6.91216 6.38212 5.60121 7.51839 4.59072 8.90174C3.58023 10.2851 2.89648 11.8795 2.59089 13.5651C2.2853 15.2508 2.36582 16.9837 2.82639 18.6338C3.28696 20.2838 4.1156 21.808 5.25001 23.0917" stroke="#1F3B8A" stroke-width="4" stroke-linecap="round" stroke-linejoin="round"/>
</svg>
